<svg width="20" height="20" viewBox="0 0 20 20" fill="none" xmlns="http://www.w3.org/2000/svg">
<path d="M18.9996 12.2548C16.2204 13.3798 13.1825 13.9993 10 13.9993C6.81746 13.9993 3.7796 13.3798 1.00044 12.2548M13.9998 4.99976V2.99985C13.9998 1.89534 13.1044 0.999951 11.9999 0.999951H8.0001C6.89558 0.999951 6.0002 1.89534 6.0002 2.99985V4.99976M10 10.9995H10.01M3.00034 18.9991H16.9997C18.1042 18.9991 18.9996 18.1037 18.9996 16.9992V6.99966C18.9996 5.89514 18.1042 4.99976 16.9997 4.99976H3.00034C1.89583 4.99976 1.00044 5.89514 1.00044 6.99966V16.9992C1.00044 18.1037 1.89583 18.9991 3.00034 18.9991Z" stroke="#E2E2E2" stroke-width="2" stroke-linecap="round" stroke-linejoin="round"/>
</svg>
