<svg width="20" height="17" viewBox="0 0 20 17" fill="none" xmlns="http://www.w3.org/2000/svg">
<path d="M9.6963 17C9.41086 17 9.13383 16.9372 8.86519 16.8116C8.59654 16.686 8.36148 16.5054 8.16 16.2696L0.453333 7.05185C0.302222 6.86716 0.189057 6.66568 0.113837 6.44741C0.0386172 6.22914 0.000671605 6.00247 0 5.76741C0 5.6163 0.0127606 5.46116 0.0382816 5.30198C0.0638026 5.14281 0.118203 4.99573 0.201482 4.86074L2.09037 1.10815C2.27506 0.772346 2.52288 0.503704 2.83384 0.302222C3.14479 0.100741 3.49302 0 3.87852 0H15.5141C15.9002 0 16.2488 0.100741 16.5598 0.302222C16.8707 0.503704 17.1182 0.772346 17.3022 1.10815L19.1911 4.86074C19.2751 4.99506 19.3298 5.14181 19.3553 5.30098C19.3808 5.46015 19.3933 5.61563 19.3926 5.76741C19.3926 6.00247 19.355 6.22914 19.2798 6.44741C19.2045 6.66568 19.091 6.86716 18.9393 7.05185L11.2326 16.2696C11.0311 16.5047 10.796 16.6854 10.5274 16.8116C10.2588 16.9379 9.98173 17.0007 9.6963 17ZM7.3037 5.03704H12.0889L10.5778 2.01481H8.81481L7.3037 5.03704ZM8.68889 13.7763V7.05185H3.09778L8.68889 13.7763ZM10.7037 13.7763L16.2948 7.05185H10.7037V13.7763ZM14.3304 5.03704H17L15.4889 2.01481H12.8193L14.3304 5.03704ZM2.39259 5.03704H5.06222L6.57333 2.01481H3.9037L2.39259 5.03704Z" fill="white"/>
</svg>
