<svg width="21" height="19" viewBox="0 0 21 19" fill="none" xmlns="http://www.w3.org/2000/svg">
<path d="M21 11.6245C21 11.9228 20.8815 12.2089 20.6705 12.4199C20.4596 12.6309 20.1734 12.7494 19.8751 12.7494H18.7501V13.8744C18.7501 14.1727 18.6316 14.4588 18.4206 14.6698C18.2097 14.8808 17.9235 14.9993 17.6252 14.9993C17.3268 14.9993 17.0407 14.8808 16.8297 14.6698C16.6188 14.4588 16.5002 14.1727 16.5002 13.8744V12.7494H15.3753C15.0769 12.7494 14.7908 12.6309 14.5798 12.4199C14.3689 12.2089 14.2503 11.9228 14.2503 11.6245C14.2503 11.3261 14.3689 11.04 14.5798 10.829C14.7908 10.618 15.0769 10.4995 15.3753 10.4995H16.5002V9.37456C16.5002 9.07621 16.6188 8.79007 16.8297 8.57911C17.0407 8.36814 17.3268 8.24962 17.6252 8.24962C17.9235 8.24962 18.2097 8.36814 18.4206 8.57911C18.6316 8.79007 18.7501 9.07621 18.7501 9.37456V10.4995H19.8751C20.1734 10.4995 20.4596 10.618 20.6705 10.829C20.8815 11.04 21 11.3261 21 11.6245ZM2.62588 4.49979H3.75083V5.62474C3.75083 5.92309 3.86935 6.20923 4.08032 6.4202C4.29129 6.63117 4.57742 6.74969 4.87578 6.74969C5.17413 6.74969 5.46027 6.63117 5.67124 6.4202C5.88221 6.20923 6.00073 5.92309 6.00073 5.62474V4.49979H7.12567C7.42403 4.49979 7.71016 4.38127 7.92113 4.1703C8.1321 3.95933 8.25062 3.6732 8.25062 3.37484C8.25062 3.07649 8.1321 2.79035 7.92113 2.57938C7.71016 2.36842 7.42403 2.2499 7.12567 2.2499H6.00073V1.12495C6.00073 0.826593 5.88221 0.540458 5.67124 0.32949C5.46027 0.118521 5.17413 0 4.87578 0C4.57742 0 4.29129 0.118521 4.08032 0.32949C3.86935 0.540458 3.75083 0.826593 3.75083 1.12495V2.2499H2.62588C2.32753 2.2499 2.04139 2.36842 1.83043 2.57938C1.61946 2.79035 1.50094 3.07649 1.50094 3.37484C1.50094 3.6732 1.61946 3.95933 1.83043 4.1703C2.04139 4.38127 2.32753 4.49979 2.62588 4.49979ZM14.6253 14.9993H14.2503V14.6243C14.2503 14.326 14.1318 14.0398 13.9209 13.8289C13.7099 13.6179 13.4238 13.4994 13.1254 13.4994C12.827 13.4994 12.5409 13.6179 12.3299 13.8289C12.119 14.0398 12.0004 14.326 12.0004 14.6243V14.9993H11.6255C11.3271 14.9993 11.041 15.1178 10.83 15.3288C10.619 15.5398 10.5005 15.8259 10.5005 16.1243C10.5005 16.4226 10.619 16.7087 10.83 16.9197C11.041 17.1307 11.3271 17.2492 11.6255 17.2492H12.0004V17.6242C12.0004 17.9225 12.119 18.2087 12.3299 18.4196C12.5409 18.6306 12.827 18.7491 13.1254 18.7491C13.4238 18.7491 13.7099 18.6306 13.9209 18.4196C14.1318 18.2087 14.2503 17.9225 14.2503 17.6242V17.2492H14.6253C14.9237 17.2492 15.2098 17.1307 15.4208 16.9197C15.6318 16.7087 15.7503 16.4226 15.7503 16.1243C15.7503 15.8259 15.6318 15.5398 15.4208 15.3288C15.2098 15.1178 14.9237 14.9993 14.6253 14.9993ZM18.2008 5.14007L5.14014 18.1998C4.78854 18.5513 4.31174 18.7487 3.81458 18.7487C3.31742 18.7487 2.84061 18.5513 2.48902 18.1998L0.549418 16.2611C0.375235 16.087 0.237063 15.8803 0.142792 15.6528C0.0485212 15.4252 0 15.1814 0 14.9351C0 14.6888 0.0485212 14.4449 0.142792 14.2174C0.237063 13.9899 0.375235 13.7832 0.549418 13.6091L13.6101 0.54935C13.9617 0.197858 14.4385 0.000400346 14.9356 0.000400346C15.4328 0.000400346 15.9096 0.197858 16.2612 0.54935L18.2008 2.48801C18.375 2.66212 18.5131 2.86884 18.6074 3.09637C18.7017 3.32389 18.7502 3.56776 18.7502 3.81404C18.7502 4.06032 18.7017 4.30419 18.6074 4.53171C18.5131 4.75924 18.375 4.96596 18.2008 5.14007ZM12.2817 7.87463L10.8755 6.46845L2.40558 14.9346L3.81177 16.3408L12.2817 7.87463ZM16.3418 3.81451L14.9356 2.40833L12.4692 4.87477L13.8754 6.28096L16.3418 3.81451Z" fill="#1A1A1A"/>
</svg>
