<svg width="10" height="9" viewBox="0 0 10 9" fill="none" xmlns="http://www.w3.org/2000/svg">
<path d="M4.22595 0.348241C4.37682 -0.116017 5.03362 -0.116016 5.18448 0.348242L5.94988 2.7036C6.01735 2.91121 6.21083 3.05178 6.42913 3.05179L8.90573 3.05188C9.39389 3.0519 9.59685 3.67656 9.20193 3.9635L7.19838 5.41929C7.02177 5.54761 6.94787 5.77505 7.01532 5.98268L7.78054 8.33809C7.93137 8.80236 7.40001 9.18842 7.00507 8.9015L5.00141 7.44587C4.82479 7.31756 4.58564 7.31756 4.40903 7.44587L2.40536 8.9015C2.01042 9.18842 1.47906 8.80236 1.62989 8.33809L2.39511 5.98268C2.46256 5.77506 2.38866 5.54761 2.21206 5.41929L0.208501 3.9635C-0.186415 3.67656 0.0165485 3.0519 0.504705 3.05188L2.9813 3.05179C3.19961 3.05178 3.39308 2.91121 3.46055 2.7036L4.22595 0.348241Z" fill="#FFEB11"/>
</svg>
