<svg width="14" height="13" viewBox="0 0 14 13" fill="none" xmlns="http://www.w3.org/2000/svg">
<path d="M13.604 7.96955V12.9998H10.6876V8.30667C10.6876 7.12827 10.2665 6.32353 9.21059 6.32353C8.40476 6.32353 7.92605 6.86531 7.71464 7.38992C7.63787 7.5774 7.61807 7.83775 7.61807 8.1007V12.9996H4.70143C4.70143 12.9996 4.74058 5.05095 4.70143 4.22815H7.61829V5.47115C7.61242 5.48094 7.60415 5.49051 7.59893 5.49986H7.61829V5.47115C8.00587 4.87478 8.69708 4.02218 10.2467 4.02218C12.1655 4.02218 13.604 5.27584 13.604 7.96955ZM1.65037 0C0.65271 0 0 0.654886 0 1.51531C0 2.35746 0.633788 3.03126 1.61209 3.03126H1.63102C2.64825 3.03126 3.28073 2.35746 3.28073 1.51531C3.26138 0.654886 2.64825 0 1.65037 0ZM0.173345 12.9998H3.0889V4.22815H0.173345V12.9998Z" fill="#F1F2F2"/>
</svg>
