<svg width="24" height="24" viewBox="0 0 24 24" fill="none" xmlns="http://www.w3.org/2000/svg">
<path d="M24 12.2304C24 11.2467 23.9183 10.5288 23.7415 9.78436H12.245V14.2244H18.9932C18.8572 15.3278 18.1225 16.9896 16.4898 18.1062L16.4669 18.2548L20.1019 21.0063L20.3538 21.0309C22.6666 18.9437 24 15.8729 24 12.2304Z" fill="#4285F4"/>
<path d="M12.245 23.929C15.551 23.929 18.3265 22.8655 20.3538 21.031L16.4898 18.1063C15.4558 18.8109 14.0681 19.3027 12.245 19.3027C9.00694 19.3027 6.25869 17.2157 5.27901 14.3309L5.13541 14.3428L1.3557 17.201L1.30628 17.3353C3.31984 21.2436 7.45587 23.929 12.245 23.929Z" fill="#34A853"/>
<path d="M5.27881 14.3305C5.02032 13.5861 4.87072 12.7884 4.87072 11.9642C4.87072 11.1399 5.02032 10.3423 5.26521 9.59791L5.25837 9.43936L1.43129 6.53528L1.30608 6.59348C0.476192 8.21534 0 10.0366 0 11.9642C0 13.8918 0.476192 15.713 1.30608 17.3348L5.27881 14.3305Z" fill="#FBBC05"/>
<path d="M12.245 4.62619C14.5442 4.62619 16.0952 5.59663 16.9796 6.40761L20.4353 3.11074C18.313 1.18315 15.551 0 12.245 0C7.45587 0 3.31984 2.68532 1.30628 6.59365L5.26541 9.59808C6.25869 6.71334 9.00694 4.62619 12.245 4.62619Z" fill="#EB4335"/>
</svg>
